<?xml version="1.0" encoding="utf-8"?>
<!-- Generator: Adobe Illustrator 23.0.1, SVG Export Plug-In . SVG Version: 6.00 Build 0)  -->
<svg version="1.1" id="Layer_1" xmlns="http://www.w3.org/2000/svg" xmlns:xlink="http://www.w3.org/1999/xlink" x="0px" y="0px"
	 viewBox="0 0 1500 1000" style="enable-background:new 0 0 1500 1000;" xml:space="preserve">
<style type="text/css">
	.st0{fill:#10E956;}
</style>
<g>
	<path class="st0" d="M851.34,399.95c0,0,24.46-90.5-78.27-100.28H648.33V456.2h114.81C763.14,456.2,834.21,458.65,851.34,399.95z"
		/>
	<path class="st0" d="M773.07,519.79H648.33V697.8l114.81-9.24c131.93,12.23,115.1-95.39,115.1-95.39
		C863.57,514.9,773.07,519.79,773.07,519.79z"/>
	<path class="st0" d="M1187.62,242.2v-85.14c0,0,5.87-76.33-96.88-104.22H414.05c0,0-77.8,13.21-92.48,80.73
		c0,0-7.34,29.36-7.34,52.84c0,0,11.74,93.94-14.68,174.68c0,0-42.57,92.5-108.62,111.57v52.83c0,0,79.27,1.47,110.09,118.9
		c0,0,29.36,115.96,14.68,196.69c0,0,19.08,89.54,85.14,99.82l676.69,5.87c0,0,95.41-7.34,107.15-86.6l6.79-17.27
		c-13.38-66.2,12.29-189.7,12.29-189.7c30.82-126.24,105.69-123.3,105.69-123.3v-57.25C1296.42,472.34,1199.93,462.51,1187.62,242.2
		z M826.33,759.49H587.18c0,0-26.06,19.57-25.26-51.36c0.8-70.93,0.8-442.71,0.8-442.71s-9.78-31.8,39.13-34.24h205.46
		c0,0,168.77,19.57,122.29,178.55c0,0-4.89,46.47-85.61,68.49c0,0,129.63,17.12,119.85,146.75
		C963.85,624.97,970.1,727.7,826.33,759.49z"/>
</g>
</svg>
