<?xml version="1.0" encoding="utf-8"?>
<!-- Generator: Adobe Illustrator 23.0.1, SVG Export Plug-In . SVG Version: 6.00 Build 0)  -->
<svg version="1.1" id="Layer_1" xmlns="http://www.w3.org/2000/svg" xmlns:xlink="http://www.w3.org/1999/xlink" x="0px" y="0px"
	 viewBox="0 0 1500 1000" style="enable-background:new 0 0 1500 1000;" xml:space="preserve">
<style type="text/css">
	.st0{fill:#10E956;}
	.st1{fill:none;}
</style>
<path class="st0" d="M352.71,52.39l38.41,418.01l35.86,388.3l323.07,88.45l321.36-87.43l75.97-807.33H352.71z M978.28,281.39
	L752.3,379.08h218.24l-26.42,286.27l-194.07,56.08l-190.53-58.99l-13.34-142.01l-0.02-0.18h0.02v0.18l15.68-0.18h0.38l81.89-0.95
	l5.33,75.44l102.83,26.11L857.39,587l5.8-118.88H590.3h-49.01l-8.62-91.71l30.49-12.89l1.2-0.5l195.35-82.61h-211h-25.05v0.01
	l-8.62-91.87h470.01L978.28,281.39z"/>
<line class="st1" x1="564.35" y1="363.04" x2="563.15" y2="363.53"/>
<line class="st1" x1="546.18" y1="520.25" x2="546.16" y2="520.25"/>
<line class="st1" x1="562.25" y1="520.25" x2="561.87" y2="520.25"/>
<line class="st1" x1="590.3" y1="468.13" x2="541.29" y2="468.13"/>
</svg>
