<?xml version="1.0" encoding="utf-8"?>
<!-- Generator: Adobe Illustrator 23.0.1, SVG Export Plug-In . SVG Version: 6.00 Build 0)  -->
<svg version="1.1" id="Layer_1" xmlns="http://www.w3.org/2000/svg" xmlns:xlink="http://www.w3.org/1999/xlink" x="0px" y="0px"
	 viewBox="0 0 1500 1000" style="enable-background:new 0 0 1500 1000;" xml:space="preserve">
<style type="text/css">
	.st0{fill:#10E956;}
</style>
<path class="st0" d="M1171.29,450.39L791.63,66.51c-50.62-54.84-92.81,0-92.81,0l-67.5,68.84l-223.58,213.8c0,0,0,0-75.93,75.93
	C255.88,501.02,306.5,543.2,306.5,543.2l264.53,267.47l87.52-86.17c-12.42-29.51-6.92-64.17,16.81-87.52
	c8.33-8.2,18.08-14.17,28.52-17.96V375.62c-27.23-12.68-46.3-42.06-46.3-76.28c0-45.82,34.2-82.97,76.39-82.97
	s76.39,37.15,76.39,82.97c0,30.88-15.53,57.79-38.56,72.08v248.76L876.36,519.8c-11.66-27.02-6.5-58.76,15.78-80.14
	c29.83-28.64,79.02-27.84,109.88,1.77c30.88,29.61,31.71,76.81,1.88,105.43c-20.1,19.29-49,25.2-75.14,17.96L814.15,674.85
	c8.26,27.53,1.75,58.03-19.77,79.21c-21.41,21.07-52.17,27.52-80.01,19.61l-91.16,89.74l62.97,63.67c59.06,63.28,105.46,0,105.46,0
	l358.57-354.35C1251.45,501.02,1171.29,450.39,1171.29,450.39z"/>
</svg>
