<?xml version="1.0" encoding="utf-8"?>
<!-- Generator: Adobe Illustrator 23.0.1, SVG Export Plug-In . SVG Version: 6.00 Build 0)  -->
<svg version="1.1" id="Layer_1" xmlns="http://www.w3.org/2000/svg" xmlns:xlink="http://www.w3.org/1999/xlink" x="0px" y="0px"
	 viewBox="0 0 1500 1000" style="enable-background:new 0 0 1500 1000;" xml:space="preserve">
<style type="text/css">
	.st0{fill:#10E956;}
</style>
<path class="st0" d="M364.14,62.83l72.57,783.04l312.82,90.52l314.08-86.11l71.31-787.44H364.14z M724.75,720.87
	c0,0-214.81-47.89-221.65-47.89s-12.31-139.56-12.31-139.56h88.93l6.84,72.52l50.62,5.59l-1.37-306.59H534.57L523.62,216
	c0,0,201.13-8.21,201.13,0V720.87z M994.81,305.52H869.44V396h118.08l-22.43,278.31l-186.12,42.5v-90.49l103.4-23.31l12.92-113.79
	H778.97V216.4h223.6L994.81,305.52z"/>
</svg>
