<?xml version="1.0" encoding="utf-8"?>
<!-- Generator: Adobe Illustrator 23.0.1, SVG Export Plug-In . SVG Version: 6.00 Build 0)  -->
<svg version="1.1" id="Layer_1" xmlns="http://www.w3.org/2000/svg" xmlns:xlink="http://www.w3.org/1999/xlink" x="0px" y="0px"
	 viewBox="0 0 1500 1000" style="enable-background:new 0 0 1500 1000;" xml:space="preserve">
<style type="text/css">
	.st0{fill:none;stroke:#10E956;stroke-width:20.613;stroke-miterlimit:10;}
</style>
<g>
	<polygon class="st0" points="543.33,39.48 667.21,128.51 679.2,137.9 543.33,241 413.42,140.23 	"/>
	<polyline class="st0" points="540.32,431.58 540.32,624.51 540.32,241 	"/>
	<polyline class="st0" points="540.32,624.51 540.32,641.7 815.09,438.62 950.96,540.15 677.71,745.59 	"/>
	<polyline class="st0" points="684.21,137.11 684.21,282.39 684.21,524.53 684.21,540.15 	"/>
	<polyline class="st0" points="407.43,144.15 407.43,140.23 407.43,255.05 403.45,741.67 483.36,803.38 677.71,948.65 
		677.71,758.85 536.33,656.54 	"/>
	<polyline class="st0" points="956.98,540.15 956.98,676.84 956.98,737.24 956.98,749.74 891.02,803.38 683.86,964.8 	"/>
	<polyline class="st0" points="813.76,432.75 813.76,236.83 934.99,145.19 956.98,129.57 1072.19,215.99 1091.66,232.07 
		1096.18,235.79 1096.18,432.75 1096.18,446.16 965.63,544.45 956.98,549.26 	"/>
	<polyline class="st0" points="1078.86,232.67 950.96,333.69 820.41,241 	"/>
	<line class="st0" x1="950.96" y1="540.15" x2="950.96" y2="333.69"/>
</g>
</svg>
