<?xml version="1.0" encoding="utf-8"?>
<!-- Generator: Adobe Illustrator 23.0.1, SVG Export Plug-In . SVG Version: 6.00 Build 0)  -->
<svg version="1.1" id="Layer_1" xmlns="http://www.w3.org/2000/svg" xmlns:xlink="http://www.w3.org/1999/xlink" x="0px" y="0px"
	 viewBox="0 0 1500 1000" style="enable-background:new 0 0 1500 1000;" xml:space="preserve">
<style type="text/css">
	.st0{fill:#10E956;}
</style>
<g>
	<path class="st0" d="M749.98,119.02c-376.89,0-682.42,170.56-682.42,380.95s305.53,380.95,682.42,380.95
		s682.42-170.56,682.42-380.95S1126.87,119.02,749.98,119.02z M497.36,605.51c-29.5,4.54-101.36,3.03-101.36,3.03l-16.64,91.53
		h-70.35l64.3-349.48h127.08c98.34,0,108.93,71.86,108.93,71.86c11.35,83.21-31.77,133.13-31.77,133.13
		C545.01,600.22,497.36,605.51,497.36,605.51z M770.54,604.83l26.1-158.85c10.21-45.39-29.5-40.85-29.5-40.85H703.6l-35.17,199.7
		h-68.08l61.27-349.48h69.72l-16.39,93.04l60.14,1.13c0,0,65.81-3.4,83.96,26.1c0,0,19.29,21.56,6.81,76.02l-27.23,153.18H770.54z
		 M1119.66,555.59c-32.53,44.63-80.18,49.93-80.18,49.93c-29.5,4.54-101.36,3.03-101.36,3.03l-16.64,91.53h-70.35l64.3-349.48
		h127.08c98.34,0,108.93,71.86,108.93,71.86C1162.78,505.66,1119.66,555.59,1119.66,555.59z"/>
	<path class="st0" d="M1061.41,414.13c-21.94-9.08-87.75-6.81-87.75-6.81l-25.72,143.72h54.28c30.07,0.76,46.33-13.62,46.33-13.62
		c24.21-12.86,30.26-58.37,30.26-58.37C1090.91,422.2,1061.41,414.13,1061.41,414.13z"/>
	<path class="st0" d="M519.3,414.13c-21.94-9.08-87.75-6.81-87.75-6.81l-25.72,143.72h54.28c30.07,0.76,46.33-13.62,46.33-13.62
		c24.21-12.86,30.26-58.37,30.26-58.37C548.8,422.2,519.3,414.13,519.3,414.13z"/>
</g>
</svg>
