<?xml version="1.0" encoding="utf-8"?>
<!-- Generator: Adobe Illustrator 23.0.1, SVG Export Plug-In . SVG Version: 6.00 Build 0)  -->
<svg version="1.1" id="Layer_1" xmlns="http://www.w3.org/2000/svg" xmlns:xlink="http://www.w3.org/1999/xlink" x="0px" y="0px"
	 viewBox="0 0 1500 1000" style="enable-background:new 0 0 1500 1000;" xml:space="preserve">
<style type="text/css">
	.st0{fill:#10E956;}
</style>
<g>
	<path class="st0" d="M1332.89,321.61c-64.49,65.28-171.15,28.98-171.15,28.98c-66.97-19.84-161.23-126.5-161.23-126.5
		c-86.82-89.3-225.72-91.93-225.72-91.93c-290.21-17.51-347.26,243.23-347.26,243.23l7.75,1.79c20.02-39.64,71.62-66.28,71.62-66.28
		c136.43-69.45,230.68,29.77,230.68,29.77c37.21,34.73,115.79,109.14,115.79,109.14c21.53,24.8,100.83,47.13,100.84,47.13l21.5,4.96
		c138.91,49.61,290.21-37.21,290.21-37.21c101.7-59.53,131.46-196.98,131.46-196.98C1375.06,289.01,1332.89,321.61,1332.89,321.61z"
		/>
	<path class="st0" d="M1007.8,707.51c-64.49,65.28-171.15,28.98-171.15,28.98c-66.97-19.84-161.23-126.5-161.23-126.5
		c-86.82-89.3-225.72-91.93-225.72-91.93c-290.21-17.51-347.26,243.23-347.26,243.23l7.75,1.79c20.02-39.64,71.62-66.28,71.62-66.28
		c136.43-69.45,230.68,29.77,230.68,29.77c37.21,34.73,115.79,109.14,115.79,109.14c21.53,24.8,100.83,47.13,100.84,47.13l21.5,4.96
		c138.91,49.61,290.21-37.21,290.21-37.21c101.7-59.53,131.46-196.98,131.46-196.98C1049.97,674.91,1007.8,707.51,1007.8,707.51z"/>
</g>
</svg>
